<svg xmlns="http://www.w3.org/2000/svg" viewBox="0 0 146 29" width="146" height="29">
	<style>
		tspan { white-space:pre }
		.shp0 { fill: #ff0844 } 
		.shp1 { fill: #2b0525 } 
	</style>
	<g id="页面-1">
		<g id="WebLogo">
			<g id="编组-6">
				<g id="编组-5">
					<path id="DAOSquare" fill-rule="evenodd" class="shp0" d="M1.92 22.07L5.19 0.97L12.09 0.97C13.54 0.97 14.76 1.2 15.74 1.67C16.72 2.14 17.46 2.81 17.95 3.67C18.44 4.53 18.69 5.53 18.69 6.69C18.69 7.17 18.65 7.63 18.58 8.09L17.51 14.95C17.3 16.33 16.83 17.56 16.1 18.63C15.38 19.7 14.4 20.54 13.16 21.15C11.93 21.76 10.49 22.07 8.83 22.07L1.92 22.07ZM9.64 16.86C10.29 16.85 10.81 16.67 11.2 16.33C11.59 15.99 11.82 15.54 11.9 14.96L12.98 8.07C13 7.9 13.01 7.77 13.01 7.7C13.01 7.23 12.87 6.86 12.59 6.59C12.3 6.32 11.87 6.18 11.29 6.17L9.97 6.17L8.32 16.86L9.64 16.86ZM18.25 22.07L27.28 0.97L32.84 0.97L35.35 22.07L29.93 22.07L29.67 19.05L25.33 19.05L24.14 22.07L18.25 22.07ZM29.04 10.76L29.04 9.06L28.5 10.76L27.15 14.36L29.29 14.36L29.04 10.76ZM41.39 21.71C40.4 21.23 39.65 20.57 39.16 19.71C38.67 18.86 38.43 17.85 38.43 16.7C38.43 16.22 38.46 15.76 38.54 15.3L39.71 7.73C39.92 6.35 40.39 5.12 41.12 4.05C41.85 2.98 42.83 2.14 44.07 1.53C45.3 0.92 46.76 0.61 48.44 0.61C50.64 0.61 52.3 1.09 53.43 2.05C54.56 3.02 55.13 4.36 55.13 6.09C55.13 6.55 55.09 6.99 55.02 7.44L53.8 15.3C53.59 16.68 53.12 17.9 52.39 18.97C51.67 20.04 50.69 20.88 49.45 21.5C48.22 22.11 46.76 22.42 45.07 22.42C43.61 22.42 42.38 22.18 41.39 21.71ZM47.47 16.7C47.86 16.35 48.11 15.89 48.2 15.3L49.38 7.73C49.4 7.56 49.41 7.42 49.41 7.32C49.41 6.86 49.26 6.49 48.96 6.22C48.67 5.95 48.22 5.82 47.63 5.82C46.96 5.82 46.42 5.99 46.03 6.33C45.64 6.68 45.4 7.15 45.3 7.73L44.13 15.3C44.11 15.5 44.1 15.63 44.1 15.71C44.1 16.17 44.25 16.54 44.54 16.81C44.84 17.08 45.28 17.22 45.86 17.22C46.53 17.22 47.07 17.04 47.47 16.7ZM59.67 21.81C58.72 21.39 58.01 20.75 57.56 19.88C57.1 19 56.88 17.85 56.88 16.44C56.88 16.09 56.88 15.83 56.89 15.64L62.63 15.64C62.64 16.18 62.78 16.58 63.06 16.84C63.33 17.09 63.7 17.22 64.17 17.22C64.66 17.22 65.07 17.11 65.39 16.89C65.72 16.68 65.88 16.35 65.88 15.92C65.88 15.59 65.7 15.32 65.36 15.09C65.02 14.86 64.43 14.61 63.61 14.31C62.48 13.9 61.55 13.47 60.83 13.02C60.11 12.58 59.53 11.99 59.11 11.28C58.69 10.57 58.48 9.67 58.48 8.59C58.48 6.97 58.83 5.56 59.54 4.36C60.25 3.16 61.24 2.23 62.52 1.58C63.8 0.93 65.27 0.61 66.94 0.61C68.46 0.61 69.69 0.82 70.63 1.23C71.57 1.64 72.26 2.28 72.7 3.15C73.14 4.02 73.36 5.16 73.36 6.56C73.36 6.92 73.35 7.19 73.34 7.39L67.68 7.39C67.6 6.34 67.14 5.82 66.32 5.82C65.82 5.82 65.42 5.96 65.1 6.25C64.78 6.53 64.62 6.9 64.62 7.34C64.62 7.64 64.72 7.9 64.9 8.11C65.09 8.32 65.36 8.51 65.71 8.67C66.06 8.83 66.57 9.02 67.22 9.24C68.31 9.59 69.2 9.98 69.89 10.39C70.59 10.8 71.13 11.33 71.53 11.99C71.92 12.65 72.12 13.5 72.12 14.52C72.12 16.24 71.77 17.69 71.07 18.87C70.38 20.05 69.38 20.94 68.08 21.53C66.78 22.12 65.22 22.42 63.4 22.42C61.87 22.42 60.63 22.22 59.67 21.81ZM80.41 28.86L81.51 21.81C81.18 22.04 80.84 22.21 80.48 22.29C80.12 22.38 79.67 22.42 79.13 22.42C78.16 22.42 77.32 22.21 76.63 21.78C75.93 21.35 75.4 20.76 75.04 20C74.68 19.24 74.5 18.36 74.5 17.38C74.5 16.03 74.78 14.76 75.35 13.58C75.91 12.41 76.7 11.46 77.7 10.75C78.71 10.03 79.84 9.68 81.09 9.68C81.59 9.68 82.05 9.76 82.48 9.92C82.91 10.08 83.26 10.31 83.55 10.62L84.04 10.03L88.18 10.03L85.26 28.86L80.41 28.86ZM82.07 17.13C82.42 16.74 82.6 16.28 82.6 15.74C82.6 15.34 82.48 15.02 82.23 14.77C81.99 14.52 81.67 14.39 81.27 14.39C80.75 14.39 80.31 14.59 79.96 14.97C79.61 15.35 79.43 15.82 79.43 16.36C79.43 16.76 79.55 17.08 79.79 17.33C80.04 17.58 80.36 17.7 80.76 17.7C81.28 17.7 81.71 17.51 82.07 17.13ZM90.7 18.21C90.7 17.77 90.74 17.34 90.81 16.89L91.87 10.03L96.72 10.03L95.68 16.76C95.67 16.82 95.66 16.9 95.66 17.01C95.66 17.24 95.73 17.42 95.88 17.53C96.02 17.65 96.24 17.7 96.55 17.7C96.89 17.7 97.15 17.63 97.33 17.48C97.52 17.34 97.64 17.1 97.69 16.76L98.74 10.03L103.59 10.03L102.52 16.89C101.95 20.58 99.72 22.42 95.82 22.42C92.41 22.42 90.7 21.02 90.7 18.21ZM107.74 21.78C107.04 21.35 106.52 20.76 106.16 20C105.8 19.24 105.62 18.36 105.62 17.38C105.62 16.03 105.9 14.76 106.47 13.58C107.03 12.41 107.82 11.46 108.82 10.75C109.82 10.03 110.95 9.68 112.21 9.68C112.72 9.68 113.18 9.76 113.61 9.93C114.04 10.11 114.39 10.37 114.65 10.73L115.16 10.03L119.29 10.03L117.42 22.07L114.38 22.07L114 21.04C113.54 21.53 112.98 21.88 112.33 22.1C111.68 22.31 110.98 22.42 110.25 22.42C109.27 22.42 108.44 22.21 107.74 21.78ZM113.18 17.13C113.53 16.74 113.7 16.28 113.7 15.74C113.7 15.33 113.58 15 113.34 14.76C113.11 14.52 112.79 14.39 112.38 14.39C111.88 14.39 111.44 14.58 111.08 14.95C110.73 15.33 110.55 15.79 110.55 16.36C110.55 16.76 110.67 17.08 110.91 17.33C111.15 17.58 111.48 17.7 111.88 17.7C112.39 17.7 112.83 17.51 113.18 17.13ZM121.5 22.07L123.37 10.03L127.51 10.03L127.79 10.78C128.24 10.41 128.73 10.13 129.27 9.95C129.8 9.77 130.34 9.68 130.88 9.68L131.6 9.68L130.83 14.64L128.71 14.64C128.36 14.64 128.06 14.75 127.79 14.97C127.53 15.19 127.37 15.49 127.32 15.87L126.35 22.07L121.5 22.07ZM135.46 21.81C134.65 21.41 134.02 20.82 133.56 20.05C133.1 19.27 132.87 18.35 132.87 17.28C132.87 15.86 133.19 14.58 133.83 13.41C134.48 12.25 135.36 11.34 136.47 10.67C137.59 10.01 138.82 9.68 140.17 9.68C141.12 9.68 142 9.87 142.79 10.25C143.58 10.63 144.21 11.21 144.69 11.99C145.16 12.76 145.4 13.7 145.4 14.82C145.4 15.23 145.35 15.75 145.24 16.4C145.14 17.04 145.03 17.5 144.93 17.77L137.73 17.75L137.73 17.77C137.74 18.02 137.85 18.2 138.05 18.33C138.25 18.45 138.52 18.51 138.86 18.51C139.13 18.51 139.39 18.45 139.62 18.34C139.85 18.22 140.02 18.08 140.13 17.91L144.26 19.37C143.66 20.35 142.8 21.1 141.69 21.63C140.58 22.16 139.42 22.42 138.21 22.42C137.18 22.42 136.27 22.22 135.46 21.81ZM140.66 14.44C140.63 14.19 140.51 13.99 140.29 13.83C140.07 13.66 139.83 13.58 139.55 13.58C139.28 13.58 139.02 13.66 138.78 13.82C138.54 13.98 138.35 14.19 138.22 14.46L140.66 14.46L140.66 14.44Z" />
					<path id="DAOSquare" fill-rule="evenodd" class="shp1" d="M0.5 21.65L3.77 0.55L10.67 0.55C12.12 0.55 13.34 0.79 14.32 1.26C15.3 1.73 16.04 2.39 16.53 3.25C17.02 4.11 17.27 5.12 17.27 6.28C17.27 6.75 17.23 7.22 17.16 7.67L16.09 14.53C15.88 15.91 15.41 17.14 14.68 18.21C13.96 19.28 12.98 20.12 11.74 20.73C10.51 21.34 9.07 21.65 7.41 21.65L0.5 21.65ZM8.22 16.44C8.87 16.43 9.39 16.26 9.78 15.92C10.17 15.58 10.4 15.12 10.48 14.55L11.56 7.65C11.58 7.48 11.59 7.36 11.59 7.28C11.59 6.82 11.45 6.45 11.17 6.18C10.88 5.91 10.45 5.77 9.87 5.76L8.55 5.76L6.9 16.44L8.22 16.44ZM16.83 21.65L25.86 0.55L31.42 0.55L33.93 21.65L28.51 21.65L28.25 18.63L23.91 18.63L22.72 21.65L16.83 21.65ZM27.62 10.35L27.62 8.64L27.08 10.35L25.73 13.95L27.87 13.95L27.62 10.35ZM39.97 21.29C38.98 20.82 38.23 20.15 37.74 19.3C37.25 18.44 37.01 17.44 37.01 16.28C37.01 15.81 37.04 15.34 37.12 14.89L38.29 7.31C38.5 5.93 38.97 4.7 39.7 3.63C40.43 2.56 41.41 1.72 42.65 1.11C43.88 0.5 45.34 0.19 47.02 0.19C49.22 0.19 50.88 0.68 52.01 1.64C53.14 2.6 53.71 3.95 53.71 5.68C53.71 6.13 53.67 6.58 53.6 7.02L52.38 14.89C52.17 16.26 51.7 17.48 50.97 18.55C50.25 19.62 49.27 20.47 48.03 21.08C46.8 21.7 45.34 22.01 43.65 22.01C42.19 22.01 40.96 21.77 39.97 21.29ZM46.05 16.28C46.44 15.94 46.69 15.47 46.78 14.89L47.96 7.31C47.98 7.14 47.99 7.01 47.99 6.91C47.99 6.44 47.84 6.08 47.54 5.81C47.25 5.54 46.8 5.4 46.21 5.4C45.54 5.4 45 5.57 44.61 5.92C44.22 6.27 43.98 6.73 43.88 7.31L42.71 14.89C42.69 15.08 42.68 15.22 42.68 15.29C42.68 15.76 42.83 16.13 43.12 16.4C43.42 16.67 43.86 16.8 44.44 16.8C45.11 16.8 45.65 16.63 46.05 16.28ZM58.25 21.39C57.3 20.98 56.59 20.34 56.14 19.46C55.68 18.58 55.46 17.44 55.46 16.02C55.46 15.68 55.46 15.41 55.47 15.23L61.21 15.23C61.22 15.77 61.36 16.17 61.64 16.42C61.91 16.67 62.28 16.8 62.75 16.8C63.24 16.8 63.65 16.69 63.97 16.48C64.3 16.26 64.46 15.94 64.46 15.5C64.46 15.18 64.28 14.9 63.94 14.68C63.6 14.45 63.01 14.19 62.19 13.9C61.06 13.49 60.13 13.06 59.41 12.61C58.69 12.16 58.11 11.58 57.69 10.87C57.27 10.15 57.06 9.25 57.06 8.17C57.06 6.55 57.41 5.14 58.12 3.94C58.83 2.74 59.82 1.82 61.1 1.17C62.38 0.52 63.85 0.19 65.52 0.19C67.04 0.19 68.27 0.4 69.21 0.81C70.15 1.22 70.84 1.86 71.28 2.73C71.72 3.6 71.94 4.74 71.94 6.15C71.94 6.5 71.93 6.78 71.92 6.97L66.26 6.97C66.18 5.92 65.72 5.4 64.9 5.4C64.4 5.4 64 5.54 63.68 5.83C63.36 6.12 63.2 6.48 63.2 6.92C63.2 7.23 63.3 7.48 63.48 7.7C63.67 7.91 63.94 8.09 64.29 8.25C64.64 8.42 65.15 8.61 65.8 8.82C66.89 9.18 67.78 9.56 68.47 9.97C69.17 10.38 69.71 10.92 70.11 11.58C70.5 12.24 70.7 13.08 70.7 14.11C70.7 15.83 70.35 17.28 69.65 18.46C68.96 19.63 67.96 20.52 66.66 21.11C65.36 21.71 63.8 22.01 61.98 22.01C60.45 22.01 59.21 21.8 58.25 21.39ZM78.99 28.45L80.09 21.39C79.76 21.63 79.42 21.79 79.06 21.88C78.7 21.96 78.25 22.01 77.71 22.01C76.74 22.01 75.9 21.79 75.21 21.37C74.51 20.94 73.98 20.34 73.62 19.58C73.26 18.82 73.08 17.95 73.08 16.96C73.08 15.61 73.36 14.35 73.93 13.17C74.49 11.99 75.28 11.04 76.28 10.33C77.29 9.62 78.42 9.26 79.67 9.26C80.17 9.26 80.63 9.34 81.06 9.5C81.49 9.67 81.85 9.9 82.13 10.2L82.62 9.62L86.76 9.62L83.84 28.45L78.99 28.45ZM80.65 16.71C81 16.33 81.18 15.87 81.18 15.33C81.18 14.93 81.06 14.6 80.82 14.35C80.57 14.1 80.25 13.98 79.85 13.98C79.33 13.98 78.89 14.17 78.54 14.55C78.19 14.94 78.01 15.4 78.01 15.94C78.01 16.34 78.13 16.67 78.37 16.91C78.62 17.16 78.94 17.29 79.34 17.29C79.86 17.29 80.29 17.1 80.65 16.71ZM89.28 17.79C89.28 17.36 89.32 16.92 89.39 16.48L90.45 9.62L95.3 9.62L94.26 16.35C94.25 16.4 94.24 16.48 94.24 16.59C94.24 16.83 94.31 17 94.46 17.12C94.6 17.23 94.82 17.29 95.13 17.29C95.47 17.29 95.73 17.21 95.91 17.07C96.1 16.92 96.22 16.68 96.27 16.35L97.32 9.62L102.17 9.62L101.1 16.48C100.53 20.16 98.3 22.01 94.4 22.01C90.99 22.01 89.28 20.6 89.28 17.79ZM106.32 21.37C105.62 20.94 105.1 20.34 104.74 19.58C104.38 18.82 104.2 17.95 104.2 16.96C104.2 15.61 104.48 14.35 105.05 13.17C105.61 11.99 106.4 11.04 107.4 10.33C108.4 9.62 109.53 9.26 110.79 9.26C111.3 9.26 111.76 9.35 112.19 9.52C112.62 9.69 112.97 9.96 113.23 10.31L113.74 9.62L117.87 9.62L116 21.65L112.96 21.65L112.58 20.63C112.12 21.11 111.56 21.47 110.91 21.68C110.26 21.9 109.56 22.01 108.83 22.01C107.85 22.01 107.02 21.79 106.32 21.37ZM111.76 16.71C112.11 16.33 112.28 15.87 112.28 15.33C112.28 14.91 112.16 14.59 111.92 14.34C111.69 14.1 111.37 13.98 110.96 13.98C110.46 13.98 110.02 14.17 109.67 14.54C109.31 14.91 109.13 15.38 109.13 15.94C109.13 16.34 109.25 16.67 109.49 16.91C109.73 17.16 110.06 17.29 110.46 17.29C110.98 17.29 111.41 17.1 111.76 16.71ZM120.08 21.65L121.95 9.62L126.09 9.62L126.37 10.36C126.82 10 127.31 9.72 127.85 9.54C128.38 9.35 128.92 9.26 129.46 9.26L130.18 9.26L129.41 14.22L127.29 14.22C126.94 14.22 126.64 14.33 126.37 14.55C126.11 14.78 125.95 15.08 125.9 15.46L124.93 21.65L120.08 21.65ZM134.04 21.4C133.23 20.99 132.6 20.4 132.14 19.63C131.68 18.86 131.45 17.94 131.45 16.87C131.45 15.45 131.77 14.16 132.41 13C133.06 11.84 133.94 10.92 135.05 10.26C136.17 9.59 137.4 9.26 138.75 9.26C139.7 9.26 140.58 9.45 141.37 9.84C142.16 10.22 142.79 10.8 143.27 11.57C143.74 12.34 143.98 13.29 143.98 14.4C143.98 14.81 143.93 15.34 143.82 15.98C143.72 16.63 143.61 17.08 143.51 17.35L136.31 17.34L136.31 17.35C136.32 17.6 136.43 17.79 136.63 17.91C136.83 18.04 137.1 18.1 137.44 18.1C137.71 18.1 137.97 18.04 138.2 17.92C138.43 17.8 138.6 17.66 138.71 17.5L142.84 18.96C142.24 19.93 141.38 20.68 140.27 21.21C139.16 21.74 138 22.01 136.79 22.01C135.76 22.01 134.85 21.8 134.04 21.4ZM139.24 14.03C139.21 13.78 139.09 13.57 138.87 13.41C138.66 13.25 138.41 13.17 138.13 13.17C137.86 13.17 137.6 13.25 137.36 13.4C137.12 13.56 136.93 13.77 136.8 14.04L139.24 14.04L139.24 14.03Z" />
				</g>
			</g>
		</g>
	</g>
</svg>