<?xml version="1.0" encoding="UTF-8"?>
<svg width="41px" height="40px" viewBox="0 0 41 40" version="1.1" xmlns="http://www.w3.org/2000/svg" xmlns:xlink="http://www.w3.org/1999/xlink">
    <title>编组 4</title>
    <defs>
        <linearGradient x1="50%" y1="0%" x2="50%" y2="100%" id="linearGradient-1">
            <stop stop-color="#0C0C02" offset="0%"></stop>
            <stop stop-color="#43003E" offset="100%"></stop>
        </linearGradient>
    </defs>
    <g id="页面-1" stroke="none" stroke-width="1" fill="none" fill-rule="evenodd">
        <g id="WebLogo" transform="translate(-47.000000, -53.000000)">
            <g id="编组-6" transform="translate(47.000000, 53.000000)">
                <g id="编组-4">
                    <rect id="矩形" fill="#FFFFFF" opacity="0" x="0" y="0" width="40" height="40"></rect>
                    <g id="编组-2" transform="translate(0.406091, 0.000000)">
                        <path d="M19.4847526,34.9741614 C21.378371,35.8435079 24.9380084,35.6983963 28.9755139,36.3510642 C33.0130194,37.0037322 35.9889892,41.9888062 36.7948606,39.0391291 C37.9283434,34.8903181 35.1249343,27.124325 32.6897008,20.7727982 C32.6040412,20.5493825 35.1781092,20.4162286 36.7948606,17.3319094 C37.7521624,15.5056395 37.7324105,10.9368827 38.3702303,9.34578181 C40.3536034,4.39807259 38.0286706,5.63000565 37.8067774,5.12326752 C37.6699439,4.81078033 38.5589311,0.0756916159 37.1497227,2.38743415 C36.8525572,2.87492059 34.1544054,10.0752252 33.5245537,11.4150047 C32.1117243,14.4202832 30.855804,14.7006708 30.7708512,14.4735578 C30.1850617,13.7434097 29.7899407,12.723892 29.5854885,11.4150047 C28.6123874,5.18528912 24.4852026,3.02301183e-14 18.1936811,3.02301183e-14 C11.9021596,3.02301183e-14 6.80187377,5.11067672 6.80187377,11.4150047 C6.44717505,12.453308 6.26982569,13.4728257 6.26982569,14.4735578 C6.26982569,14.8853098 3.85930782,16.8347839 2.62487774,18.1734615 C0.656618022,20.3079405 0.0142137706,22.5668378 -4.31699518e-15,23.269118 C-0.00825294384,23.6948537 0.310290596,27.5882253 2.02993758,26.6757654 C2.14763888,26.6133121 2.32749311,26.1758022 2.57256575,25.5843513 C2.91288378,24.7630381 3.3756437,23.6019471 3.9756948,22.7790296 C4.83847567,21.5958014 6.13494421,21.2767322 6.26982569,21.2789138 C6.24228408,25.1612005 6.24228408,27.3065901 6.26982569,27.7150826 C6.50696721,31.2323242 7.26546499,32.3609294 9.11545039,34.9741614 C10.3219608,36.6784407 12.1022536,37.3777531 13.9095578,36.3510642 C14.6534567,35.928472 16.7747374,33.7300132 19.4847526,34.9741614 Z" id="椭圆形" fill="url(#linearGradient-1)"></path>
                        <ellipse id="椭圆形" fill="#FFFFFF" cx="22.9022948" cy="10.1234568" rx="4.55672294" ry="4.61538462"></ellipse>
                        <g id="编组-3" transform="translate(18.378783, 7.521368)">
                            <ellipse id="椭圆形" fill="#160B0D" transform="translate(3.664365, 3.380817) rotate(-18.000000) translate(-3.664365, -3.380817) " cx="3.6643647" cy="3.38081671" rx="2.98939966" ry="2.57878383"></ellipse>
                            <ellipse id="椭圆形" fill="#FFFFFF" cx="5.29719041" cy="2.64007597" rx="1" ry="1"></ellipse>
                        </g>
                        <ellipse id="椭圆形" fill="#FFFFFF" cx="11.3585967" cy="13.3903134" rx="1.40498957" ry="1.34852802"></ellipse>
                        <ellipse id="椭圆形" fill="#FFFFFF" transform="translate(19.423032, 22.962963) rotate(50.000000) translate(-19.423032, -22.962963) " cx="19.4230315" cy="22.962963" rx="5.83007039" ry="3.81683721"></ellipse>
                        <ellipse id="椭圆形" fill="#000000" cx="11.9471734" cy="13.0104463" rx="1" ry="1"></ellipse>
                    </g>
                </g>
            </g>
        </g>
    </g>
</svg>