<?xml version="1.0" encoding="UTF-8"?>
<svg width="250px" height="69px" viewBox="0 0 250 69" version="1.1" xmlns="http://www.w3.org/2000/svg" xmlns:xlink="http://www.w3.org/1999/xlink">
    <title>pokemol__brand</title>
    <g id="页面-1" stroke="none" stroke-width="1" fill="none" fill-rule="evenodd">
        <g id="pokemol__brand" fill-rule="nonzero">
            <path d="M74.5134731,48.992016 C73.6277445,48.992016 73.238523,48.6027944 73.238523,47.7170659 L73.238523,24.7629741 C73.238523,23.8772455 73.6277445,23.488024 74.5134731,23.488024 L85.3493014,23.488024 C91.7939122,23.488024 93.7050898,26.2874251 93.7050898,30.3942116 L93.7050898,34.9301397 C93.7050898,39.0394212 91.7939122,41.8363273 85.3493014,41.8363273 L81.2749501,41.8363273 L81.2749501,47.7145709 C81.2749501,48.6002994 80.8857285,48.989521 80,48.989521 L74.5134731,48.992016 Z M81.2050898,35.4640719 L84.3912176,35.4640719 C85.7734531,35.4640719 86.0553892,34.6506986 86.0553892,33.7300399 L86.0553892,31.8537924 C86.0553892,30.9331337 85.7734531,30.1072854 84.3912176,30.1072854 L81.2050898,30.1072854 L81.2050898,35.4640719 Z" id="形状" fill="#000000"></path>
            <path d="M108.008982,49.5234531 C99.1566866,49.5234531 96.998503,46.6192615 96.998503,42.2879242 L96.998503,30.2245509 C96.998503,25.9031936 99.1566866,22.9640719 108.008982,22.9640719 C116.861277,22.9640719 118.987026,25.9031936 118.987026,30.2245509 L118.987026,42.2979042 C118.987026,46.6192615 116.861277,49.5234531 108.008982,49.5234531 Z M108.008982,42.6896208 C110.593812,42.6896208 110.985529,41.9810379 110.985529,41.0229541 L110.985529,31.499501 C110.985529,30.5788423 110.593812,29.8702595 108.008982,29.8702595 C105.461577,29.8702595 105.03493,30.5788423 105.03493,31.499501 L105.03493,41.0229541 C105.03992,41.9810379 105.461577,42.6896208 108.008982,42.6896208 L108.008982,42.6896208 Z" id="形状" fill="#000000"></path>
            <path d="M124.750499,48.992016 C123.86477,48.992016 123.475549,48.6027944 123.475549,47.7170659 L123.475549,24.7629741 C123.475549,23.8772455 123.86477,23.488024 124.750499,23.488024 L130.239521,23.488024 C131.12525,23.488024 131.514471,23.8772455 131.514471,24.7629741 L131.514471,32.9066866 L132.931637,32.9066866 L136.576846,24.6581836 C136.931138,23.8073852 137.427645,23.488024 138.348303,23.488024 L143.802395,23.488024 C144.615768,23.488024 144.9002,23.9146707 144.580838,24.6581836 L140.968064,32.9141717 C143.62525,33.0563872 145.324351,34.9101796 145.324351,37.7320359 L145.324351,47.7120758 C145.324351,48.5978044 144.93513,48.9870259 144.049401,48.9870259 L138.602794,48.9870259 C137.719561,48.9870259 137.330339,48.5978044 137.330339,47.7120758 L137.330339,40.8108782 C137.330339,40.0324351 136.938623,39.6082834 136.19511,39.6082834 L131.521956,39.6082834 L131.521956,47.7170659 C131.521956,48.6027944 131.132735,48.992016 130.247006,48.992016 L124.750499,48.992016 Z" id="路径" fill="#000000"></path>
            <path d="M151.172655,48.992016 C150.289421,48.992016 149.9002,48.6027944 149.9002,47.7170659 L149.9002,24.7629741 C149.9002,23.8772455 150.289421,23.488024 151.172655,23.488024 L167.60479,23.488024 C168.488024,23.488024 168.879741,23.8772455 168.879741,24.7629741 L168.879741,28.9071856 C168.879741,29.7904192 168.488024,30.1821357 167.60479,30.1821357 L157.831836,30.1821357 L157.831836,32.9066866 L164.735529,32.9066866 C165.621257,32.9066866 166.010479,33.2984032 166.010479,34.1816367 L166.010479,37.9715569 C166.010479,38.8572854 165.621257,39.246507 164.735529,39.246507 L157.831836,39.246507 L157.831836,42.2904192 L167.60479,42.2904192 C168.488024,42.2904192 168.879741,42.6821357 168.879741,43.5653693 L168.879741,47.7095808 C168.879741,48.5953094 168.488024,48.9845309 167.60479,48.9845309 L151.172655,48.992016 Z M153.86477,22.3278443 C153.051397,22.4351297 152.662176,21.9735529 152.662176,21.1601796 L152.662176,17.759481 C152.662176,16.8737525 153.051397,16.5918164 153.934631,16.4845309 L166.29491,14.9700599 C167.108283,14.8627745 167.497505,15.3243513 167.497505,16.1377246 L167.497505,19.5384232 C167.497505,20.4241517 167.108283,20.7060878 166.222555,20.8133733 L153.86477,22.3278443 Z" id="形状" fill="#000000"></path>
            <path d="M174.331337,48.992016 C173.445609,48.992016 173.056387,48.6027944 173.056387,47.7170659 L173.056387,24.7629741 C173.056387,23.8772455 173.445609,23.488024 174.331337,23.488024 L180.032435,23.488024 C180.780938,23.488024 181.23503,23.7724551 181.661677,24.5508982 L184.847804,30.3218563 C185.097305,30.748503 185.202096,30.9256487 185.486527,30.9256487 L185.803393,30.9256487 C186.087824,30.9256487 186.192615,30.748503 186.442116,30.3218563 L189.593313,24.5508982 C190.017465,23.7724551 190.479042,23.488024 191.222555,23.488024 L196.961078,23.488024 C197.846806,23.488024 198.236028,23.8772455 198.236028,24.7629741 L198.236028,47.7170659 C198.236028,48.6027944 197.846806,48.992016 196.961078,48.992016 L191.504491,48.992016 C190.583832,48.992016 190.229541,48.6027944 190.229541,47.7170659 L190.229541,35.242016 L188.141218,39.1017964 C187.717066,39.9151697 187.185629,40.2345309 186.26497,40.2345309 L184.847804,40.2345309 C183.927146,40.2345309 183.395709,39.9151697 182.971557,39.1017964 L180.888224,35.251996 L180.888224,47.7270459 C180.888224,48.6127745 180.499002,49.001996 179.613273,49.001996 L174.331337,48.992016 Z" id="路径" fill="#000000"></path>
            <path d="M213.742515,49.5234531 C204.89022,49.5234531 202.729541,46.6192615 202.729541,42.2879242 L202.729541,30.2245509 C202.729541,25.9031936 204.89022,22.9640719 213.742515,22.9640719 C222.59481,22.9640719 224.720559,25.9031936 224.720559,30.2245509 L224.720559,42.2979042 C224.720559,46.6192615 222.59481,49.5234531 213.742515,49.5234531 Z M213.742515,42.6896208 C216.327345,42.6896208 216.716567,41.9810379 216.716567,41.0229541 L216.716567,31.499501 C216.716567,30.5788423 216.327345,29.8702595 213.742515,29.8702595 C211.157685,29.8702595 210.768463,30.5788423 210.768463,31.499501 L210.768463,41.0229541 C210.768463,41.9810379 211.192615,42.6896208 213.742515,42.6896208 L213.742515,42.6896208 Z" id="形状" fill="#000000"></path>
            <path d="M230.491517,48.992016 C229.605788,48.992016 229.216567,48.6027944 229.216567,47.7170659 L229.216567,24.7629741 C229.216567,23.8772455 229.605788,23.488024 230.491517,23.488024 L235.980539,23.488024 C236.863772,23.488024 237.255489,23.8772455 237.255489,24.7629741 L237.255489,42.2904192 L242.105788,42.2904192 L242.105788,36.5518962 C242.105788,35.6661677 242.49501,35.2769461 243.380739,35.2769461 L248.515469,35.2769461 C249.398703,35.2769461 249.790419,35.6661677 249.790419,36.5518962 L249.790419,47.7070858 C249.790419,48.5928144 249.398703,48.9820359 248.515469,48.9820359 L230.491517,48.992016 Z" id="路径" fill="#000000"></path>
            <polygon id="路径" fill="#000000" points="2.07335329 35.993014 5.99301397 33.8822355 2.44760479 31.1901198 6.64670659 29.7180639 3.57035928 26.501996 7.9491018 25.7085828 5.41417166 22.0508982 9.86526946 21.9560878 7.93662675 17.9441118 12.3478044 18.5454092 11.0678643 14.2814371 15.3293413 15.5638723 14.7280439 11.1526946 18.74002 13.0813373 18.8348303 8.63273453 22.492515 11.1651697 23.2859281 6.78642715 26.501996 9.86526946 27.9740519 5.66367265 30.6661677 9.20908184 32.7769461 5.28942116 34.8852295 9.20908184 37.5773453 5.66367265 39.0518962 9.86526946 42.2654691 6.78642715 43.0588822 11.1651697 46.7190619 8.63273453 46.8138723 13.0838323 50.8258483 11.1526946 50.2220559 15.5638723 54.4860279 14.2839321 53.2060878 18.5454092 57.6172655 17.9441118 55.6861277 21.9560878 60.1372255 22.0508982 57.6022954 25.7110778 61.9835329 26.501996 58.9046906 29.7180639 63.1037924 31.1901198 59.5583832 33.8822355 63.4780439 35.993014 59.5583832 38.1037924 63.1037924 40.7934132 58.9046906 42.2679641 61.9835329 45.4840319 57.6022954 46.2749501 60.1372255 49.9351297 55.6861277 50.0299401 57.6147705 54.0419162 53.2060878 53.4406188 54.4860279 57.7020958 50.2220559 56.4221557 50.8233533 60.8333333 46.8138723 58.9021956 46.7190619 63.3532934 43.0588822 60.8183633 42.2654691 65.1996008 39.0518962 62.1207585 37.5773453 66.3223553 34.8852295 62.7769461 32.7769461 66.6941118 30.6661677 62.7769461 27.9740519 66.3223553 26.501996 62.1207585 23.2859281 65.1996008 22.492515 60.8183633 18.8323353 63.3532934 18.737525 58.9021956 14.7280439 60.8308383 15.3293413 56.4221557 11.0653693 57.7020958 12.3453094 53.4381238 7.93662675 54.0419162 9.86526946 50.0299401 5.41417166 49.9351297 7.9491018 46.2749501 3.56786427 45.4815369 6.64670659 42.2679641 2.44760479 40.7934132 5.99301397 38.1037924"></polygon>
            <path d="M32.7769461,68.7200599 L30.5314371,64.5434132 L27.6621756,68.3233533 L26.0903194,63.8448104 L22.6621756,67.1282435 L21.8163673,62.4550898 L17.9141717,65.1571856 L17.8143713,60.4166667 L13.5379242,62.4725549 L14.1791417,57.7719561 L9.63323353,59.1317365 L10.998004,54.5883234 L6.29740519,55.2295409 L8.35578842,50.9555888 L3.61526946,50.8532934 L6.31237525,46.9535928 L1.64171657,46.1077844 L4.9251497,42.6796407 L0.446606786,41.1102794 L4.2240519,38.241018 L0.0499001996,35.995509 L4.2240519,33.75 L0.446606786,30.8807385 L4.9251497,29.3088822 L1.64171657,25.8757485 L6.31237525,25.0299401 L3.61027944,21.1277445 L8.3507984,21.0279441 L6.2999002,16.751497 L10.998004,17.3927146 L9.63572854,12.8493014 L14.1766467,14.2215569 L13.5354291,9.52345309 L17.8118762,11.5793413 L17.9116766,6.83882236 L21.8138723,9.54091816 L22.6596806,4.87025948 L26.0878244,8.15369261 L27.6596806,3.66267465 L30.5289421,7.44261477 L32.7744511,3.26596806 L35.0199601,7.44261477 L37.8867265,3.66267465 L39.4585828,8.15369261 L42.8867265,4.87025948 L43.7325349,9.54091816 L47.6347305,6.83882236 L47.7370259,11.5793413 L52.010978,9.52345309 L51.3747505,14.2215569 L55.9181637,12.8567864 L54.5533932,17.4001996 L59.253992,16.758982 L57.1981038,21.0329341 L61.9386228,21.1352295 L59.2365269,25.0374251 L63.9096806,25.8807385 L60.6287425,29.3063872 L65.1197605,30.8757485 L61.3398204,33.74501 L65.5139721,35.990519 L61.3398204,38.2360279 L65.1197605,41.1102794 L60.6287425,42.6796407 L63.9121756,46.1077844 L59.241517,46.9535928 L61.9436128,50.8582834 L57.2030938,50.9580838 L59.258982,55.2345309 L54.5583832,54.5933134 L55.9231537,59.1342315 L51.3797405,57.7694611 L52.0209581,62.4700599 L47.744511,60.4141717 L47.6447106,65.1546906 L43.737525,62.4575848 L42.8917166,67.1282435 L39.4635729,63.8448104 L37.8917166,68.3233533 L35.0249501,64.5434132 L32.7769461,68.7200599 Z M30.8033932,61.007984 L32.7769461,64.6706587 L34.748004,61.007984 L37.2629741,64.3188623 L38.6377246,60.3967066 L41.6317365,63.2709581 L42.3802395,59.1816367 L45.7959082,61.5494012 L45.8857285,57.3927146 L49.6282435,59.1941118 L49.0643713,55.0748503 L53.0563872,56.2699601 L51.8587824,52.2779441 L55.9805389,52.8393214 L54.1791417,49.0968064 L58.3333333,49.009481 L55.9680639,45.5913174 L60.0573852,44.8428144 L57.1831337,41.8488024 L61.1052894,40.4715569 L57.7944112,37.9590818 L61.4570858,35.9855289 L57.7944112,34.011976 L61.1052894,31.497006 L57.1831337,30.1222555 L60.0573852,27.1282435 L55.9680639,26.3797405 L58.3358283,22.9615768 L54.1791417,22.8742515 L55.9805389,19.1317365 L51.8562874,19.7105788 L53.0538922,15.7185629 L49.0618762,16.9136727 L49.6232535,12.7944112 L45.8807385,14.5958084 L45.7934132,10.4391218 L42.3752495,12.8068862 L41.6267465,8.71506986 L38.6327345,11.5893214 L37.255489,7.66716567 L34.748004,10.9780439 L32.7769461,7.31536926 L30.8033932,10.9780439 L28.2884232,7.66467066 L26.9136727,11.5868263 L23.9196607,8.71257485 L23.1711577,12.8018962 L19.755489,10.4366267 L19.6681637,14.5933134 L15.9256487,12.7894212 L16.4870259,16.9111776 L12.49501,15.7135729 L13.6926148,19.7055888 L9.57085828,19.1442116 L11.3747505,22.8867265 L7.21806387,22.9740519 L9.58333333,26.3897206 L5.49401198,27.1382236 L8.36826347,30.1322355 L4.44610778,31.506986 L7.75948104,34.0219561 L4.09431138,35.995509 L7.75948104,37.9690619 L4.44860279,40.4790419 L8.37075848,41.8562874 L5.48902196,44.8552894 L9.57834331,45.6037924 L7.21307385,49.0219561 L11.3697605,49.1092814 L9.56586826,52.8517964 L13.6876248,52.2904192 L12.49002,56.2824351 L16.4820359,55.0873253 L15.9181637,59.2065868 L19.6606786,57.4051896 L19.750499,61.5618762 L23.1661677,59.1941118 L23.9146707,63.2834331 L26.9086826,60.4091816 L28.2834331,64.3313373 L30.8033932,61.007984 Z" id="形状" fill="#000000"></path>
            <circle id="椭圆形" fill="#E81858" cx="32.7769461" cy="35.993014" r="27.50499"></circle>
            <path d="M32.6846307,57.1007984 C38.1212575,57.1007984 42.9141717,55.501497 47.4051896,52.3028942 C53.8073852,47.7320359 53.1611776,40.7909182 47.4051896,43.3483034 C45.4441118,44.2190619 41.1676647,48.1462076 32.6846307,48.1462076 L32.7694611,48.1462076 C24.2864271,48.1462076 20.0174651,44.2190619 18.0489022,43.3483034 C12.2929142,40.7909182 11.6492016,47.7320359 18.0489022,52.3028942 C22.5274451,55.501497 27.3253493,57.1007984 32.7694611,57.1007984" id="路径" fill="#AA174C"></path>
            <path d="M32.7769461,57.739521 L32.6846307,57.739521 C27.1956088,57.7245509 22.2929142,56.1152695 17.6846307,52.8243513 C14.3687625,50.4540918 11.744012,46.2300399 13.2859281,43.5329341 C14.1417166,42.0359281 16.0304391,41.744012 18.3158683,42.7644711 C18.8516162,43.0248801 19.3707384,43.3181883 19.8702595,43.6427146 C22.2255489,45.0848303 26.1626747,47.49501 32.7270459,47.50499 C39.2914172,47.5149701 43.2260479,45.0848303 45.5813373,43.6427146 C46.0873187,43.317465 46.6131267,43.0241457 47.1556886,42.7644711 C49.4486028,41.744012 51.3298403,42.0309381 52.1856287,43.5329341 C53.7275449,46.2300399 51.1027944,50.4540918 47.7869261,52.8243513 C43.1786427,56.1152695 38.2709581,57.7245509 32.7894212,57.739521 L32.7769461,57.739521 Z M15.8483034,43.4356287 C15.1796407,43.4356287 14.6806387,43.6851297 14.4036926,44.1666667 C13.5978044,45.5763473 14.5508982,49.006986 18.4356287,51.7839321 C22.8318363,54.9226547 27.507485,56.4520958 32.7345309,56.4621238 C37.9615768,56.4720559 42.6347305,54.9226547 47.0309381,51.7839321 C50.9156687,49.006986 51.8687625,45.5763473 51.0628743,44.1666667 C50.5638723,43.2834331 49.3163673,43.1986028 47.6621756,43.9321357 C47.1797432,44.1733845 46.7108176,44.4407471 46.257485,44.7330339 C43.7924152,46.242515 39.6756487,48.7649701 32.7844311,48.7849301 L32.6846307,48.7849301 C25.7834331,48.7649701 21.6666667,46.242515 19.2115768,44.7330339 C18.7585667,44.440216 18.2896114,44.1728365 17.8068862,43.9321357 C17.1948844,43.6343387 16.5282637,43.4653483 15.8483034,43.4356287 Z" id="形状" fill="#000000"></path>
            <path d="M32.7769461,64.4560878 C17.0572245,64.4560878 4.31387226,51.7127356 4.31387226,35.993014 C4.31387226,20.2732924 17.0572245,7.52994012 32.7769461,7.52994012 C48.4966677,7.52994012 61.24002,20.2732924 61.24002,35.993014 C61.2207738,51.7047567 48.4886888,64.4368416 32.7769461,64.4560878 Z M32.7769461,9.44860279 C18.1168726,9.44860279 6.23253493,21.3329405 6.23253493,35.993014 C6.23253493,50.6530875 18.1168726,62.5374251 32.7769461,62.5374251 C47.4370196,62.5374251 59.3213573,50.6530875 59.3213573,35.993014 C59.3048574,21.3397804 47.4301797,9.46510265 32.7769461,9.44860279 Z" id="形状" fill="#000000"></path>
            <circle id="椭圆形" fill="#FFFFFF" cx="22.0508982" cy="31.3473054" r="7.5249501"></circle>
            <path d="M22.0508982,39.510978 C18.7477647,39.510978 15.7699259,37.5210849 14.5061046,34.4692909 C13.2422834,31.4174969 13.9414034,27.9048869 16.2774284,25.5695757 C18.6134533,23.2342644 22.1262768,22.5362178 25.1776845,23.8009715 C28.2290922,25.0657253 30.2180751,28.044172 30.2170663,31.3473054 C30.2115643,35.8546705 26.5582647,39.5068538 22.0508982,39.510978 L22.0508982,39.510978 Z M22.0508982,24.4610778 C18.2477397,24.4610778 15.1646707,27.5441469 15.1646707,31.3473054 C15.1646707,35.1504638 18.2477397,38.2335329 22.0508982,38.2335329 C25.8540567,38.2335329 28.9371262,35.1504638 28.9371262,31.3473054 C28.9385052,27.5419601 25.8562415,24.4552293 22.0508982,24.4510978 L22.0508982,24.4610778 Z" id="形状" fill="#000000"></path>
            <circle id="椭圆形" fill="#FFFFFF" cx="43.1811377" cy="31.3473054" r="7.5249501"></circle>
            <path d="M43.1811377,39.510978 C39.8780042,39.510978 36.9001654,37.5210849 35.6363442,34.4692909 C34.3725229,31.4174969 35.0716429,27.9048869 37.4076679,25.5695757 C39.7436928,23.2342644 43.2565163,22.5362178 46.307924,23.8009715 C49.3593317,25.0657253 51.3483146,28.044172 51.3473058,31.3473054 C51.3418038,35.8546705 47.6885043,39.5068538 43.1811377,39.510978 Z M43.1811377,24.4610778 C39.3779793,24.4610778 36.2949102,27.5441469 36.2949102,31.3473054 C36.2949102,35.1504638 39.3779793,38.2335329 43.1811377,38.2335329 C46.9842962,38.2335329 50.0673657,35.1504638 50.0673657,31.3473054 C50.0687448,27.5419601 46.986481,24.4552293 43.1811377,24.4510978 L43.1811377,24.4610778 Z" id="形状" fill="#000000"></path>
            <circle id="椭圆形" fill="#000000" cx="22.0508982" cy="32.49501" r="4.47854291"></circle>
            <circle id="椭圆形" fill="#000000" cx="43.1811377" cy="32.49501" r="4.47854291"></circle>
            <path d="M32.7769461,48.1536926 L30.5314371,53.1212575 L28.9071856,48.4730539 L26.0978044,52.3103792 L24.7005988,47.1856287 L18.3757485,56.4620758 L19.6382236,44.2365269 C19.6382236,44.2365269 25.5763473,48.1536926 32.7769461,48.1536926 Z" id="路径" fill="#FFFFFF"></path>
            <path d="M18.1561876,56.7889222 L19.1092814,43.1337325 L19.99002,43.7125749 C21.4890932,44.6288985 23.0774304,45.3904644 24.7305389,45.9855289 L25.0548902,46.1027944 C26.354797,46.565147 27.6897688,46.922252 29.0469062,47.1706587 L29.0918164,47.1057884 L29.1192615,47.1831337 C30.3087225,47.3936769 31.5141102,47.5013604 32.7220559,47.50499 L33.74501,47.50499 L30.4391218,54.8378244 L28.6926148,49.8253493 L25.8183633,53.75 L24.4510978,48.6901198 L18.1561876,56.7889222 Z M20.1721557,45.3118762 L19.5359281,53.4481038 L23.992016,47.0858283 C22.6767703,46.5894118 21.4000069,45.9964798 20.1721557,45.3118762 L20.1721557,45.3118762 Z M29.6232535,48.5553892 L30.6212575,51.3847305 L31.8038922,48.75998 C31.0528942,48.7300399 30.3268463,48.6526946 29.6232535,48.5603792 L29.6232535,48.5553892 Z M25.4765469,47.5973054 L26.3697605,50.8532934 L28.2285429,48.3133733 C27.2990529,48.126175 26.3803771,47.8888018 25.4765469,47.6022954 L25.4765469,47.5973054 Z" id="形状" fill="#000000"></path>
            <path d="M32.7769461,57.1007984 L30.5314371,53.1087824 L28.1511976,56.7764471 L26.0179641,52.2979042 L23.3932136,55.251996 C23.3932136,55.251996 26.504491,57.1007984 32.7769461,57.1007984 Z" id="路径" fill="#FFFFFF"></path>
            <path d="M27.6946108,57.3028942 C24.7005988,56.746507 23.1636727,55.8607784 23.0713573,55.8058882 L22.4051896,55.4091816 L26.1976048,51.1477046 L28.255988,55.4640719 L30.5888224,51.8687625 L33.8822355,57.7295409 L32.7894212,57.7295409 C31.355884,57.7340739 29.923983,57.6323314 28.505489,57.4251497 L27.6946108,57.3028942 Z M29.2664671,56.247505 C29.99501,56.3398204 30.7984032,56.4096806 31.6716567,56.4421158 L30.496507,54.3488024 L29.2664671,56.247505 Z M24.4510978,55.0449102 C25.2807506,55.3822757 26.1369862,55.6501623 27.010978,55.8458084 L25.8682635,53.4481038 L24.4510978,55.0449102 Z" id="形状" fill="#000000"></path>
            <path d="M32.6122754,48.1536926 L34.8577844,53.1212575 L36.4820359,48.4730539 L39.2914172,52.3103792 L40.6986028,47.1931138 L47.0184631,56.4695609 L45.755988,44.244012 C45.755988,44.244012 39.8128743,48.1536926 32.6122754,48.1536926 Z" id="路径" fill="#FFFFFF"></path>
            <path d="M47.010978,56.7889222 L40.9406188,48.6901198 L39.5508982,53.75 L36.6766467,49.8253493 L34.9301397,54.8378244 L31.6217565,47.50499 L32.6197605,47.50499 C33.83747,47.497945 35.0525154,47.3902933 36.252495,47.1831337 L36.3273453,47.1706587 C37.6887054,46.9229036 39.0278742,46.565792 40.3318363,46.1027944 L40.6536926,45.9855289 C42.3070819,45.3911357 43.8954859,44.6295378 45.3942116,43.7125749 L46.2749501,43.1337325 L47.010978,56.7889222 Z M41.3972056,47.0858283 L45.9081836,53.4481038 L45.2245509,45.3118762 C43.9937803,45.9958237 42.714578,46.5887265 41.3972056,47.0858283 L41.3972056,47.0858283 Z M33.5928144,48.7649701 L34.7754491,51.3972056 L35.7734531,48.5678643 C35.0598802,48.6526946 34.3338323,48.7300399 33.5928144,48.7649701 L33.5928144,48.7649701 Z M37.1606786,48.3183633 L39.0194611,50.8582834 L39.9201597,47.6022954 C39.0138758,47.8904237 38.0927108,48.1294602 37.1606786,48.3183633 L37.1606786,48.3183633 Z" id="形状" fill="#000000"></path>
            <path d="M32.6122754,57.1007984 L34.8577844,53.1087824 L37.240519,56.7764471 L39.3712575,52.2979042 L41.996008,55.251996 C41.996008,55.251996 38.8822355,57.1007984 32.6122754,57.1007984 Z" id="路径" fill="#FFFFFF"></path>
            <path d="M36.8937126,57.4351297 C35.4760573,57.6423251 34.0449846,57.744068 32.6122754,57.739521 L31.5194611,57.739521 L34.8103792,51.8787425 L37.1457086,55.4740519 L39.2015968,51.1576846 L42.9815369,55.3992016 L42.3153693,55.7959082 C42.2255489,55.8507984 40.6961078,56.7365269 37.6921158,57.2929142 L36.8937126,57.4351297 Z M34.8977046,54.3488024 L33.7225549,56.4421158 C34.5983034,56.4096806 35.3992016,56.3398204 36.1302395,56.247505 L34.8977046,54.3488024 Z M39.5334331,53.4481038 L38.3932136,55.8458084 C39.2669992,55.6493931 40.1231721,55.3815261 40.9530938,55.0449102 L39.5334331,53.4481038 Z" id="形状" fill="#000000"></path>
            <path d="M27.3403194,42.0683633 C28.3627859,42.4577679 29.4428822,42.6744617 30.5364271,42.7095808" id="路径" fill="#000000"></path>
            <path d="M30.5364271,43.6626747 C29.3206972,43.6280589 28.119529,43.3885001 26.9835329,42.9540918 C26.4902247,42.7577331 26.2494996,42.1986476 26.4458583,41.7053393 C26.642217,41.2120311 27.2013025,40.9713059 27.6946108,41.1676647 C28.6047011,41.510721 29.5644686,41.7036857 30.5364271,41.739022 C30.8908363,41.720942 31.2263421,41.8997325 31.4089727,42.2040001 C31.5916034,42.5082677 31.5916034,42.8884389 31.4089727,43.1927065 C31.2263421,43.4969741 30.8908363,43.6757646 30.5364271,43.6576846 L30.5364271,43.6626747 Z" id="路径" fill="#000000"></path>
            <path d="M37.5723553,42.0683633 C36.5497859,42.4574115 35.4697498,42.6740932 34.3762475,42.7095808" id="路径" fill="#000000"></path>
            <path d="M34.3762475,43.6626747 C34.0218384,43.6807546 33.6863326,43.5019641 33.5037019,43.1976965 C33.3210713,42.8934289 33.3210713,42.5132577 33.5037019,42.2089901 C33.6863326,41.9047225 34.0218384,41.725932 34.3762475,41.744012 C35.3483882,41.7062887 36.3080385,41.5116625 37.2180639,41.1676647 C37.7099941,40.971306 38.2679626,41.210914 38.4643213,41.7028443 C38.6606801,42.1947746 38.421072,42.7527431 37.9291417,42.9491018 C36.7933487,43.3848938 35.5922265,43.6261304 34.3762475,43.6626747 L34.3762475,43.6626747 Z" id="路径" fill="#000000"></path>
            <path d="M10.3892216,39.6706597 C10.241758,39.6709168 10.0988206,39.6197417 9.98502994,39.5259481 C9.7113367,39.3024389 9.67005176,38.8996318 9.89271457,38.6252495 C12.4226547,35.5339321 16.7290419,36.4620758 18.6526946,37.3777445 C18.9710024,37.5300087 19.1056074,37.9114826 18.9533433,38.2297904 C18.8010791,38.5480982 18.4196052,38.6827032 18.1012974,38.5304391 C17.2289316,38.1491525 16.3034041,37.903467 15.3567864,37.8018962 C13.4306387,37.6072854 11.9211577,38.1536926 10.8782435,39.4286427 C10.760088,39.5789503 10.5803901,39.6678825 10.3892216,39.6706597 L10.3892216,39.6706597 Z" id="路径" fill="#000000"></path>
            <path d="M55,39.510978 C54.8068302,39.5119563 54.6235133,39.4257974 54.500998,39.2764471 C51.9710579,36.1851297 47.3328343,38.3582834 47.2854291,38.3807385 C47.0769165,38.4964074 46.8214407,38.4868212 46.6221827,38.3558516 C46.4229246,38.2248821 46.312797,37.9941622 46.3362778,37.7568745 C46.3597587,37.5195868 46.5129695,37.3149256 46.7340319,37.2255489 C48.6551896,36.3023952 52.9715569,35.3767465 55.491517,38.4730539 C55.6497552,38.6646614 55.6824974,38.9306531 55.5754507,39.1549159 C55.4684041,39.3791787 55.2410031,39.520997 54.992515,39.5184631 L55,39.510978 Z" id="路径" fill="#000000"></path>
            <path d="M37.5149701,13.1911178 C37.3016909,12.2185126 37.557615,11.2022072 38.2060878,10.4466068 L46.1901198,1.14021956 C46.5061387,0.79318236 47.0143755,0.698611662 47.4340715,0.908749907 C47.8537675,1.11888815 48.0825403,1.58247332 47.994012,2.04341317 L48.1536926,14.5733533 C48.1738888,16.0996013 47.0353917,17.393348 45.5189621,17.5673653 C42.2180639,17.9441118 38.3732535,17.1107784 37.5149701,13.1911178 Z" id="路径" fill="#E81858"></path>
            <path d="M44.0618762,18.2959494 C40.2195609,18.2959494 37.5748503,16.501996 36.8887226,13.3283433 L36.8887226,13.3283433 C36.6360997,12.1582876 36.9443254,10.9373814 37.7220559,10.0274451 L45.7060878,0.721057884 C46.2017848,0.16288055 47.0054414,-0.00304114219 47.6816659,0.313183109 C48.3578905,0.62940736 48.745796,1.35254168 48.6352295,2.09081836 L48.7999002,14.5658683 C48.8358364,16.4262997 47.4481456,18.0075966 45.5988024,18.2135729 C45.0884315,18.2696764 44.57532,18.2971645 44.0618762,18.2959494 L44.0618762,18.2959494 Z M46.9585828,1.42964072 C46.8457819,1.43000592 46.738918,1.4802411 46.6666667,1.56686627 L38.6826347,10.8607784 C38.1654149,11.465084 37.9604928,12.2764646 38.1287425,13.0538922 L38.1287425,13.0538922 C38.4306387,14.4361277 39.752994,17.5773453 45.4441118,16.9336327 C46.6366964,16.8011941 47.5326809,15.7830791 47.512475,14.5833333 L47.3577844,1.99600798 L47.3702595,1.93113772 C47.4119399,1.75106504 47.3212281,1.56651341 47.1531936,1.48952096 C47.0937277,1.45500618 47.0271657,1.43452558 46.9585828,1.42964072 L46.9585828,1.42964072 Z" id="形状" fill="#000000"></path>
            <path d="M27.9041916,13.1911178 C28.1151955,12.2181456 27.8585145,11.2025015 27.2105788,10.4466068 L19.2265469,1.14021956 C18.9105279,0.79318236 18.4022912,0.698611662 17.9825952,0.908749907 C17.5628992,1.11888815 17.3341264,1.58247332 17.4226547,2.04341317 L17.257984,14.5758483 C17.2377879,16.1020963 18.3762849,17.395843 19.8927146,17.5698603 C23.2035928,17.9441118 27.0434132,17.1107784 27.9041916,13.1911178 Z" id="路径" fill="#E81858"></path>
            <path d="M21.3572854,18.2959082 C20.84287,18.2947516 20.3289236,18.2647644 19.8178643,18.2060878 C17.9714276,18.0003639 16.5847413,16.4234541 16.6167665,14.5658683 L16.7789421,2.09081836 C16.6593664,1.34889952 17.0450658,0.617369974 17.7247947,0.296885039 C18.4045236,-0.0235998953 19.214286,0.144282097 19.7105788,0.708582834 L27.6946108,10.0274451 C28.4723412,10.9373814 28.7805669,12.1582876 28.5279441,13.3283433 L28.5279441,13.3283433 C27.8318363,16.501996 25.1996008,18.2959082 21.3572854,18.2959082 Z M18.4630739,1.42714332 C18.3934783,1.42734795 18.3249761,1.4444735 18.2634731,1.47704591 C18.0937392,1.55243317 18.001563,1.73783298 18.0439122,1.91866267 L18.0439122,1.98353293 L17.8792415,14.5833333 C17.8596621,15.7873755 18.7625373,16.8071699 19.9600798,16.9336327 C25.6561876,17.5773453 26.9735529,14.4386228 27.2754491,13.0538922 L27.2754491,13.0538922 C27.4436988,12.2764646 27.2387767,11.465084 26.7215569,10.8607784 L18.737525,1.55439122 C18.6694402,1.47337189 18.5689016,1.42675853 18.4630739,1.42714332 Z" id="形状" fill="#000000"></path>
        </g>
    </g>
</svg>